<svg width="240" height="60" viewBox="0 0 240 60" fill="none" xmlns="http://www.w3.org/2000/svg">
  <path d="M30 10C19.5066 10 11 18.5066 11 29C11 39.4934 19.5066 48 30 48C40.4934 48 49 39.4934 49 29C49 18.5066 40.4934 10 30 10ZM30 41.5C23.0964 41.5 17.5 35.9036 17.5 29C17.5 22.0964 23.0964 16.5 30 16.5C36.9036 16.5 42.5 22.0964 42.5 29C42.5 35.9036 36.9036 41.5 30 41.5Z" fill="white"/>
  <path d="M87.26 16.6H80.2V41H87.26V30.24C87.26 26.8 89.34 24.14 92.98 24.14C96.84 24.14 98.44 27.02 98.44 30.24V41H105.5V28.02C105.5 22.62 101.92 16 94.42 16C90.86 16 88.16 17.74 87.26 18.82V16.6Z" fill="white"/>
  <path d="M119.139 41.56C126.639 41.56 131.099 36.1 131.099 28.8C131.099 21.5 126.639 16.04 119.139 16.04C111.639 16.04 107.179 21.5 107.179 28.8C107.179 36.1 111.639 41.56 119.139 41.56ZM119.139 35.24C115.899 35.24 114.239 32.44 114.239 28.8C114.239 25.16 115.899 22.36 119.139 22.36C122.379 22.36 124.039 25.16 124.039 28.8C124.039 32.44 122.379 35.24 119.139 35.24Z" fill="white"/>
  <path d="M150.223 31.18C152.623 30.64 155.443 28.34 155.443 24.14C155.443 16.3 148.303 16.6 144.443 16.6H136.943V41H145.283C149.503 41 157.123 39.98 157.123 33.18C157.123 29.82 154.963 31.48 150.223 31.18ZM143.843 22.3H144.683C146.243 22.3 148.643 22.18 148.643 25C148.643 27.82 146.243 27.7 144.683 27.7H143.843V22.3ZM145.163 35.3H143.843V31.48H145.163C146.963 31.48 150.323 31.24 150.323 33.4C150.323 35.56 146.963 35.3 145.163 35.3Z" fill="white"/>
  <path d="M177.016 41.56C184.516 41.56 188.976 36.1 188.976 28.8C188.976 21.5 184.516 16.04 177.016 16.04C169.516 16.04 165.056 21.5 165.056 28.8C165.056 36.1 169.516 41.56 177.016 41.56ZM177.016 35.24C173.776 35.24 172.116 32.44 172.116 28.8C172.116 25.16 173.776 22.36 177.016 22.36C180.256 22.36 181.916 25.16 181.916 28.8C181.916 32.44 180.256 35.24 177.016 35.24Z" fill="white"/>
  <path d="M199.34 41H206.56L207.22 38.92C208.06 39.76 210.46 41.56 213.74 41.56C221.12 41.56 225.82 36.1 225.82 28.8C225.82 21.5 221.12 16.04 213.74 16.04C211.12 16.04 208.48 17.14 207.22 18.46V8.8H199.34V41ZM212.54 35.24C209.3 35.24 207.34 32.44 207.34 28.8C207.34 25.16 209.3 22.36 212.54 22.36C215.78 22.36 217.94 25.16 217.94 28.8C217.94 32.44 215.78 35.24 212.54 35.24Z" fill="white"/>
</svg> 